<?xml version="1.0" standalone="no"?>
<!DOCTYPE svg PUBLIC "-//W3C//DTD SVG 20010904//EN"
 "http://www.w3.org/TR/2001/REC-SVG-20010904/DTD/svg10.dtd">
<svg version="1.0" xmlns="http://www.w3.org/2000/svg"
 width="270.000000pt" height="59.000000pt" viewBox="0 0 270.000000 59.000000"
 preserveAspectRatio="xMidYMid meet">
<metadata>
Created by potrace 1.16, written by Peter Selinger 2001-2019
</metadata>
<g transform="translate(0.000000,59.000000) scale(0.100000,-0.100000)"
fill="#000000" stroke="none">
<path d="M0 295 l0 -295 1350 0 1350 0 0 295 0 295 -1350 0 -1350 0 0 -295z
m372 274 c29 -6 65 -18 81 -25 l27 -15 0 -130 c0 -160 -9 -186 -77 -224 -26
-15 -64 -38 -84 -50 -31 -20 -37 -21 -55 -8 -10 8 -46 28 -78 46 -89 47 -96
65 -96 229 0 156 -3 150 95 174 65 16 121 17 187 3z m451 -38 c4 -4 4 -18 -1
-30 l-8 -23 -12 27 c-10 23 -17 26 -50 23 -32 -3 -37 -7 -37 -27 0 -20 7 -26
47 -36 26 -6 54 -17 62 -25 37 -30 1 -93 -60 -106 -31 -6 -114 11 -114 24 0 4
3 17 6 30 6 23 7 22 25 -8 18 -28 24 -31 62 -28 37 3 42 6 42 28 0 19 -7 27
-30 34 -71 21 -85 29 -91 52 -9 35 1 53 38 69 33 15 104 13 121 -4z m680 0 c4
-4 4 -18 -1 -32 l-9 -24 -7 23 c-13 41 -91 44 -91 3 0 -20 8 -26 47 -36 26 -6
54 -17 62 -25 37 -30 1 -93 -60 -106 -31 -6 -114 11 -114 24 0 4 3 17 6 30 7
23 7 23 25 -7 16 -26 25 -31 58 -31 32 0 41 4 47 22 7 24 -17 48 -48 48 -11 0
-32 7 -48 15 -51 26 -35 92 25 108 25 7 97 -1 108 -12z m-497 -58 c20 -38 46
-83 56 -100 l20 -33 -41 0 c-29 0 -41 4 -41 15 0 8 -5 26 -12 40 -9 19 -19 25
-44 25 -26 0 -34 -5 -42 -29 -7 -20 -7 -32 1 -40 8 -8 2 -11 -23 -11 -31 0
-32 1 -18 18 9 9 34 54 57 100 23 45 43 82 46 82 2 0 21 -30 41 -67z m217 8
l57 -60 0 48 c0 26 -5 52 -12 59 -9 9 -4 12 22 12 26 0 31 -3 22 -12 -8 -8
-12 -45 -12 -100 0 -48 -4 -88 -9 -88 -5 0 -43 37 -85 82 l-76 83 0 -71 c0
-41 5 -75 12 -82 9 -9 5 -12 -21 -12 -28 0 -31 2 -21 14 7 10 10 44 8 100 l-3
86 31 0 c25 0 42 -12 87 -59z m389 19 c-2 -22 0 -40 5 -40 16 0 65 58 59 69
-5 7 6 11 31 11 35 -1 36 -2 17 -13 -25 -14 -84 -64 -84 -70 0 -3 9 -7 19 -10
11 -3 34 -25 52 -51 18 -25 36 -43 40 -40 4 2 29 45 56 94 26 50 50 90 54 90
3 0 15 -19 25 -42 10 -23 34 -67 52 -96 17 -30 32 -56 32 -58 0 -2 -18 -4 -40
-4 -22 0 -39 3 -38 8 1 4 -3 22 -9 40 -10 26 -17 32 -42 32 -34 0 -56 -29 -48
-61 5 -17 -1 -19 -54 -19 l-59 0 -23 47 c-29 61 -47 67 -47 16 0 -22 5 -44 12
-51 9 -9 1 -12 -36 -12 -41 0 -47 2 -36 14 7 10 10 44 8 100 l-3 86 30 0 c30
0 30 -1 27 -40z m564 19 c22 -23 10 -57 -23 -65 -25 -7 -26 -7 -5 -23 11 -9
27 -31 37 -50 9 -18 20 -29 25 -25 5 5 27 45 50 89 23 44 45 84 49 88 5 4 33
-37 63 -92 l56 -101 -45 0 c-29 0 -42 4 -38 11 4 5 1 23 -5 40 -10 24 -18 29
-45 29 -25 0 -34 -6 -44 -26 -9 -20 -9 -29 0 -41 11 -12 3 -14 -51 -11 -61 3
-64 4 -73 33 -12 37 -35 65 -55 65 -11 0 -13 -12 -10 -50 l3 -50 -35 0 -35 0
0 101 0 101 82 -4 c59 -2 87 -8 99 -19z m366 -40 l34 -60 25 60 c22 56 26 61
54 61 l30 0 0 -100 0 -100 -37 0 c-37 0 -37 0 -27 32 11 40 12 136 1 123 -5
-6 -21 -43 -36 -83 -16 -41 -32 -70 -35 -65 -4 4 -21 38 -37 75 -16 37 -33 68
-38 68 -12 0 1 -120 15 -136 9 -11 5 -14 -20 -14 -29 0 -31 2 -21 21 7 12 10
54 8 100 l-3 79 27 0 c22 0 32 -10 60 -61z m-1820 -275 c-3 -65 -1 -84 13 -97
22 -23 61 -21 85 3 25 25 29 134 5 160 -13 14 -11 16 20 16 33 0 47 -10 24
-18 -5 -2 -14 -38 -18 -81 -9 -96 -21 -111 -92 -110 -76 1 -94 23 -94 116 0
40 -3 77 -7 82 -4 7 7 11 30 10 l37 0 -3 -81z m288 21 c33 -33 62 -56 66 -52
9 9 -6 97 -17 97 -5 0 -9 4 -9 9 0 4 14 8 30 7 23 -1 28 -4 23 -16 -4 -8 -9
-54 -11 -103 -2 -48 -6 -87 -9 -87 -3 0 -41 37 -84 83 l-78 82 -1 -67 c0 -48
4 -71 16 -82 14 -15 12 -16 -22 -16 -31 0 -35 2 -24 15 8 10 11 43 9 102 l-4
88 28 -1 c20 -1 45 -17 87 -59z m651 40 c13 -34 10 -37 -17 -16 -17 13 -41 21
-65 21 -38 0 -39 -1 -39 -35 0 -32 2 -35 31 -35 17 0 39 5 50 10 17 10 19 7
19 -26 0 -35 -1 -36 -18 -21 -19 18 -82 24 -82 8 0 -31 15 -71 28 -76 23 -8
80 14 97 38 16 23 20 10 9 -30 -6 -22 -11 -23 -106 -23 -87 0 -99 2 -88 15 8
10 11 43 9 102 l-4 88 84 0 c75 0 85 -3 92 -20z m219 0 c28 -25 25 -42 -11
-64 -21 -13 -26 -20 -16 -24 8 -3 26 -26 40 -51 l26 -46 -35 0 c-30 0 -36 5
-56 47 -16 33 -30 49 -45 51 -19 3 -23 -1 -23 -22 0 -13 4 -36 10 -50 9 -26 9
-26 -36 -26 -40 0 -45 2 -34 15 8 10 11 43 9 102 l-4 89 78 -2 c59 -1 83 -6
97 -19z m226 12 c3 -3 3 -14 0 -25 -7 -20 -8 -19 -32 5 -27 27 -61 28 -77 1
-14 -22 7 -48 40 -48 13 0 37 -7 53 -15 57 -30 29 -106 -43 -119 -30 -5 -102
6 -114 18 -3 3 -2 17 1 32 l7 27 19 -31 c15 -24 27 -32 49 -32 44 0 61 10 61
36 0 19 -8 25 -42 34 -52 13 -69 21 -81 42 -14 22 -1 63 25 76 23 12 122 11
134 -1z m355 -9 c19 -29 9 -42 -14 -20 -13 12 -31 22 -41 22 -16 0 -17 -10
-14 -95 l3 -95 -35 0 -35 0 3 95 c4 86 2 95 -14 95 -10 0 -28 -10 -41 -22 -16
-15 -23 -17 -23 -7 1 39 22 46 129 43 49 -2 77 -7 82 -16z"/>
<path d="M163 543 l-53 -16 0 -137 c0 -153 5 -167 75 -209 l35 -20 0 34 c0 19
0 38 0 43 0 4 -6 7 -12 7 -7 0 -14 8 -16 18 -2 10 3 17 12 17 9 0 16 5 16 10
0 6 18 10 39 10 22 0 42 4 45 8 2 4 -11 6 -30 4 -19 -2 -45 -1 -59 2 -23 6
-25 11 -25 61 0 49 2 55 24 61 14 3 34 3 46 -1 17 -6 20 -12 15 -36 -7 -33 2
-72 16 -64 5 4 9 24 9 46 0 22 5 49 10 60 9 15 7 19 -7 20 -24 2 -25 2 -48 -7
-18 -7 -18 -6 -7 9 8 9 11 21 7 27 -3 5 1 20 9 32 9 12 16 26 16 30 0 13 -60
8 -117 -9z"/>
</g>
</svg>
